<svg xmlns="http://www.w3.org/2000/svg" xmlns:xlink="http://www.w3.org/1999/xlink" width="115.326" height="98.094" viewBox="0 0 115.326 98.094"><defs><linearGradient id="a" x1="0.5" x2="0.5" y2="1" gradientUnits="objectBoundingBox"><stop offset="0" stop-color="#667eea"/><stop offset="1" stop-color="#764ba2"/></linearGradient></defs><g transform="translate(0 -9.567)"><path d="M114.539,51.313,44.261,10.74a8.8,8.8,0,0,0-12,3.214L24.174,27.967,18.788,37.3A8.8,8.8,0,0,0,22,49.3l24.1,13.91L42.352,69.6a5.654,5.654,0,0,1-4.858,2.783H23.426V61.657a1.577,1.577,0,0,0-1.577-1.577H13.29V58.046a6.991,6.991,0,0,0-6.983-6.983H1.577A1.576,1.576,0,0,0,0,52.64v53.444a1.576,1.576,0,0,0,1.577,1.577h4.73a6.991,6.991,0,0,0,6.983-6.983V95.67h8.559a1.577,1.577,0,0,0,1.577-1.577V86.344H37.494a19.672,19.672,0,0,0,16.9-9.681l3.8-6.473L71.4,77.816A8.74,8.74,0,0,0,75.779,79a8.83,8.83,0,0,0,2.289-.3,8.73,8.73,0,0,0,3.816-2.152,13.135,13.135,0,0,0,5.513,1.22,13.346,13.346,0,0,0,3.456-.458,13.167,13.167,0,0,0,7.182-4.865l3.229,1.864a1.576,1.576,0,0,0,2.154-.578l11.695-20.255a1.578,1.578,0,0,0-.574-2.156Zm-104.4,49.365a3.833,3.833,0,0,1-3.829,3.829H3.153V54.217H6.307a3.833,3.833,0,0,1,3.829,3.829Zm10.136-8.162H13.29V63.234h6.983ZM51.677,75.067a16.5,16.5,0,0,1-14.183,8.124H23.426V75.533H37.494a8.819,8.819,0,0,0,7.578-4.341l3.762-6.408,6.633,3.829Zm21.3.017-49.4-28.52a5.638,5.638,0,0,1-2.061-7.693l4.6-7.962L71.387,57.048l13.88,8.013-4.6,7.966-.006.01a5.563,5.563,0,0,1-.4.586v.006A5.637,5.637,0,0,1,72.981,75.085Zm17.062-.828a10.051,10.051,0,0,1-6.25-.329L88,66.636l7.292,4.209a10.051,10.051,0,0,1-5.254,3.411Zm11.438-3.478-10.2-5.887-3.077-1.776L53.4,43.018l-25.7-14.839L35,15.531a5.638,5.638,0,0,1,7.693-2.06L111.6,53.256Z" transform="translate(0)" fill="url(#a)"/><path d="M104.821,66.75a6.027,6.027,0,0,0,3.023.815,6.068,6.068,0,1,0-3.023-.815Zm.513-6.706a2.893,2.893,0,0,1,1.767-1.351,2.913,2.913,0,1,1-1.766,1.356Z" transform="translate(-10.078 -4.541)" fill="url(#a)"/><path d="M43.82,49.427,30.9,41.966A1.577,1.577,0,1,0,29.323,44.7l12.924,7.46a1.577,1.577,0,0,0,1.573-2.73Z" transform="translate(-2.825 -3.187)" fill="url(#a)"/></g></svg>