<svg xmlns="http://www.w3.org/2000/svg" xmlns:xlink="http://www.w3.org/1999/xlink" width="107.39" height="95.456" viewBox="0 0 107.39 95.456"><defs><linearGradient id="a" x1="0.5" x2="0.5" y2="1" gradientUnits="objectBoundingBox"><stop offset="0" stop-color="#667eea"/><stop offset="1" stop-color="#764ba2"/></linearGradient></defs><path d="M97.322,64H10.068C4.507,64,0,69.342,0,75.932v71.592c0,6.59,4.507,11.932,10.068,11.932H97.322c5.56,0,10.068-5.342,10.068-11.932V75.932C107.39,69.342,102.882,64,97.322,64Zm0,11.932V86.075c-4.7,4.539-12.2,11.6-28.229,26.472-3.532,3.293-10.529,11.2-15.4,11.112-4.868.093-11.867-7.82-15.4-11.112C22.271,97.674,14.771,90.615,10.068,86.075V75.932ZM10.068,147.524V101.386c4.806,4.537,11.622,10.9,22.01,20.544,4.584,4.277,12.613,13.718,21.617,13.661,8.96.057,16.886-9.247,21.615-13.659,10.388-9.641,17.206-16.009,22.012-20.546v46.137Z" transform="translate(0 -64)" fill="url(#a)"/></svg>