<svg xmlns="http://www.w3.org/2000/svg" xmlns:xlink="http://www.w3.org/1999/xlink" width="54.558" height="54.558" viewBox="0 0 54.558 54.558"><defs><linearGradient id="a" x1="0.5" x2="0.5" y2="1" gradientUnits="objectBoundingBox"><stop offset="0" stop-color="#667eea"/><stop offset="1" stop-color="#764ba2"/></linearGradient></defs><path d="M54.558,35.008v48.53a3.007,3.007,0,0,1-3.008,3.008H37.643V65.429H44.73L45.79,57.2H37.63V51.936c0-2.387.658-4.007,4.08-4.007h4.36V40.561a58.615,58.615,0,0,0-6.357-.329c-6.284,0-10.595,3.836-10.595,10.887V57.2H22.006v8.232h7.112V86.558H3.008A3.014,3.014,0,0,1,0,83.55V35.008A3.014,3.014,0,0,1,3.008,32h48.53A3.017,3.017,0,0,1,54.558,35.008Z" transform="translate(0 -32)" fill="url(#a)"/></svg>