<svg xmlns="http://www.w3.org/2000/svg" xmlns:xlink="http://www.w3.org/1999/xlink" width="62.635" height="62.621" viewBox="0 0 62.635 62.621"><defs><linearGradient id="a" x1="0.5" x2="0.5" y2="1" gradientUnits="objectBoundingBox"><stop offset="0" stop-color="#667eea"/><stop offset="1" stop-color="#764ba2"/></linearGradient></defs><path d="M31.249,47.08A16.055,16.055,0,1,0,47.3,63.135,16.03,16.03,0,0,0,31.249,47.08Zm0,26.493A10.438,10.438,0,1,1,41.687,63.135,10.457,10.457,0,0,1,31.249,73.573Zm20.457-27.15a3.745,3.745,0,1,1-3.745-3.745A3.736,3.736,0,0,1,51.706,46.423Zm10.634,3.8c-.238-5.016-1.383-9.46-5.058-13.121s-8.1-4.807-13.121-5.058c-5.17-.293-20.666-.293-25.836,0-5,.238-9.446,1.383-13.121,5.044S.4,45.194.145,50.21c-.293,5.17-.293,20.666,0,25.836.238,5.016,1.383,9.46,5.058,13.121s8.1,4.807,13.121,5.058c5.17.293,20.666.293,25.836,0,5.016-.238,9.46-1.383,13.121-5.058s4.807-8.1,5.058-13.121C62.633,70.876,62.633,55.394,62.34,50.224ZM55.66,81.594a10.568,10.568,0,0,1-5.953,5.953C45.586,89.181,35.8,88.8,31.249,88.8s-14.35.363-18.459-1.258a10.568,10.568,0,0,1-5.953-5.953C5.2,77.472,5.581,67.691,5.581,63.135s-.363-14.35,1.258-18.459a10.568,10.568,0,0,1,5.953-5.953c4.122-1.635,13.9-1.258,18.459-1.258S45.6,37.1,49.708,38.724a10.568,10.568,0,0,1,5.953,5.953c1.635,4.122,1.258,13.9,1.258,18.459S57.3,77.486,55.66,81.594Z" transform="translate(0.075 -31.825)" fill="url(#a)"/></svg>