<svg xmlns="http://www.w3.org/2000/svg" xmlns:xlink="http://www.w3.org/1999/xlink" width="96.842" height="84.95" viewBox="0 0 96.842 84.95"><defs><linearGradient id="a" x1="0.5" x2="0.5" y2="1" gradientUnits="objectBoundingBox"><stop offset="0" stop-color="#667eea"/><stop offset="1" stop-color="#764ba2"/></linearGradient></defs><path d="M0,0H96.842V84.95H0Z" fill="none"/><path d="M35.488,34.38V66.76L65.665,50.57ZM87.22,18.19H54.543L68.726,4.874,65.665,2,48.421,18.19h-.129L31.048,2,28.073,4.874,42.213,18.19H9.622A8.4,8.4,0,0,0,1,26.285v48.57A8.4,8.4,0,0,0,9.622,82.95h77.6a8.4,8.4,0,0,0,8.622-8.095V26.285A8.4,8.4,0,0,0,87.22,18.19Zm0,56.665H9.622V26.285h77.6Z" transform="translate(0)" fill="url(#a)"/></svg>