<svg xmlns="http://www.w3.org/2000/svg" xmlns:xlink="http://www.w3.org/1999/xlink" width="127.692" height="113.504" viewBox="0 0 127.692 113.504"><defs><linearGradient id="a" x1="0.5" x2="0.5" y2="1" gradientUnits="objectBoundingBox"><stop offset="0" stop-color="#667eea"/><stop offset="1" stop-color="#764ba2"/></linearGradient></defs><path d="M63.846,0A27.932,27.932,0,0,0,35.913,27.933c0,12.472,18.256,35.2,25.25,43.455a3.5,3.5,0,0,0,5.365,0c6.994-8.251,25.25-30.983,25.25-43.455A27.932,27.932,0,0,0,63.846,0Zm0,37.244a9.311,9.311,0,1,1,9.311-9.311A9.31,9.31,0,0,1,63.846,37.244ZM4.46,47.874A7.1,7.1,0,0,0,0,54.46v55.493a3.547,3.547,0,0,0,4.864,3.294L35.47,99.316V47.645a67.135,67.135,0,0,1-4.711-10.291ZM63.846,79.735a10.592,10.592,0,0,1-8.094-3.76c-4.358-5.143-8.994-11-13.188-17.008V99.314L85.128,113.5V58.969C80.934,64.975,76.3,70.834,71.94,75.977A10.6,10.6,0,0,1,63.846,79.735Zm58.982-44.007L92.222,49.658V113.5l31.01-12.4a7.093,7.093,0,0,0,4.46-6.586V39.022A3.547,3.547,0,0,0,122.829,35.727Z" fill="url(#a)"/></svg>