<svg xmlns="http://www.w3.org/2000/svg" xmlns:xlink="http://www.w3.org/1999/xlink" width="104.472" height="104.472" viewBox="0 0 104.472 104.472"><defs><linearGradient id="a" x1="0.5" x2="0.5" y2="1" gradientUnits="objectBoundingBox"><stop offset="0" stop-color="#667eea"/><stop offset="1" stop-color="#764ba2"/></linearGradient></defs><path d="M81.384,4.049,64.228.09a3.985,3.985,0,0,0-4.536,2.293L51.773,20.859a3.949,3.949,0,0,0,1.138,4.619l10,8.182A61.137,61.137,0,0,1,33.677,62.891l-8.182-10a3.955,3.955,0,0,0-4.619-1.138L2.4,59.675A4.006,4.006,0,0,0,.09,64.228L4.049,81.384a3.958,3.958,0,0,0,3.86,3.068A76.534,76.534,0,0,0,84.452,7.909,3.954,3.954,0,0,0,81.384,4.049Z" transform="translate(104.459 23.288) rotate(106)" fill="url(#a)"/></svg>