<svg xmlns="http://www.w3.org/2000/svg" xmlns:xlink="http://www.w3.org/1999/xlink" width="113.83" height="97.227" viewBox="0 0 113.83 97.227"><defs><linearGradient id="a" x1="0.5" x2="0.5" y2="1" gradientUnits="objectBoundingBox"><stop offset="0" stop-color="#667eea"/><stop offset="1" stop-color="#764ba2"/></linearGradient></defs><g transform="translate(0 -37.34)"><g transform="translate(0 37.34)"><g transform="translate(0 0)"><path d="M113.663,66.728l-.076-.427c-.014-.066-.021-.132-.035-.2l-7.983-19.28V37.34H8.129v9.485L.278,66.1c-.017.076-.028.153-.042.227l-.073.4A13.727,13.727,0,0,0,0,68.846,13.544,13.544,0,0,0,7.114,80.773v53.794h99.6V80.773a13.551,13.551,0,0,0,7.114-11.927A13.725,13.725,0,0,0,113.663,66.728ZM108.3,65.8H90.878L88.784,51.716h13.784ZM12.874,42.082h87.953v4.743H12.874ZM86.79,70.539l.257,1.721-1.4,1.867a8.808,8.808,0,0,1-14.1,0L70.115,72.22l-.083-1.681ZM69.8,65.8l-.691-14.081H83.986l2.1,14.081Zm-4.516,4.742h0l.083,1.72L63.96,74.127a8.808,8.808,0,0,1-14.1,0l-1.438-1.919.083-1.669H65.283ZM48.748,65.8l.712-14.081h14.9L65.051,65.8Zm-20.978,0,2.07-14.081H44.715L44,65.8Zm15.986,4.742-.087,1.739-1.39,1.85a8.808,8.808,0,0,1-14.1,0l-1.369-1.822.261-1.766Zm-32.5-18.823H25.046L22.976,65.8H5.524ZM4.9,70.539H22.281l-.372,1.843L20.6,74.128A8.81,8.81,0,0,1,4.9,70.539Zm87.582,59.289H73.513v-16.6h2.373a2.369,2.369,0,1,0,0-4.738H73.513V91.88H92.487Zm9.484,0H97.228V87.142H68.771v42.686H11.856V82.291A13.552,13.552,0,0,0,24.39,76.976a13.552,13.552,0,0,0,21.684,0,13.549,13.549,0,0,0,21.68,0,13.552,13.552,0,0,0,21.684,0,13.552,13.552,0,0,0,12.533,5.315v47.537Zm-1.7-52.175a8.741,8.741,0,0,1-7.045-3.526L91.851,72.3l-.267-1.758h17.334A8.818,8.818,0,0,1,100.275,77.653Z" transform="translate(0 -37.34)" fill="url(#a)"/></g></g><g transform="translate(16.598 87.142)"><path d="M74.656,261.348v33.2h47.431v-33.2Zm42.686,28.457H79.4V266.086h37.941Z" transform="translate(-74.656 -261.348)" fill="url(#a)"/></g><g transform="translate(47.411 103.74)"><path d="M220.364,336a2.354,2.354,0,0,0-1.678.695l-4.742,4.745a2.369,2.369,0,0,0,3.352,3.349l4.742-4.738A2.373,2.373,0,0,0,220.364,336Z" transform="translate(-213.25 -336.004)" fill="url(#a)"/></g><g transform="translate(37.924 94.257)"><path d="M187.179,293.348a2.354,2.354,0,0,0-1.678.695l-14.229,14.225a2.37,2.37,0,1,0,3.352,3.352l14.229-14.225a2.37,2.37,0,0,0-1.674-4.047Z" transform="translate(-170.578 -293.348)" fill="url(#a)"/></g></g></svg>